<svg version="1.1" id="Layer_1" xmlns="http://www.w3.org/2000/svg" xmlns:xlink="http://www.w3.org/1999/xlink" x="0px" y="0px"
	 width="100%" viewBox="0 0 158 158" enable-background="new 0 0 158 158" xml:space="preserve">
<path fill="#459598" opacity="1.000000" stroke="none" 
	d="
M87.000000,159.000000 
	C58.000004,159.000000 29.500008,159.000000 1.000008,159.000000 
	C1.000005,106.333344 1.000005,53.666687 1.000003,1.000022 
	C53.666653,1.000015 106.333305,1.000015 158.999969,1.000007 
	C158.999969,53.666645 158.999969,106.333290 158.999985,158.999969 
	C135.166672,159.000000 111.333336,159.000000 87.000000,159.000000 
M92.841080,147.009644 
	C96.903572,145.352509 100.966064,143.695374 105.675926,142.013840 
	C106.107498,141.997665 106.539078,141.981476 107.661537,141.831955 
	C109.446297,140.561050 111.231064,139.290146 113.498230,138.000076 
	C113.498230,138.000076 113.980568,137.979614 114.537003,137.771500 
	C115.028465,137.185196 115.519936,136.598892 116.490875,135.989853 
	C116.490875,135.989853 116.970459,135.969849 117.560966,135.718948 
	C118.053886,134.825165 118.546814,133.931396 119.617317,132.758621 
	C120.737457,132.163864 121.857605,131.569122 123.644524,130.808609 
	C124.362595,130.401108 125.243271,130.142975 125.774879,129.564209 
	C138.171890,116.067726 144.053436,100.058517 143.888245,81.813240 
	C143.876709,80.540016 142.725525,79.277115 141.920425,77.171700 
	C141.677231,75.360085 141.439087,73.547768 141.190079,71.736946 
	C135.686600,31.712910 94.128624,7.423239 56.811523,22.966127 
	C31.332029,33.578556 19.152771,53.799210 17.280966,81.400055 
	C16.868608,82.773888 16.062468,84.159676 16.103754,85.519737 
	C16.612852,102.290268 22.634014,116.887970 33.923454,129.251404 
	C35.149647,130.594254 37.277302,131.113922 38.999237,132.000610 
	C38.999237,132.000610 38.985062,132.018188 39.164509,132.663086 
	C40.451065,133.765915 41.737621,134.868759 43.501438,135.997818 
	C43.501438,135.997818 43.978676,136.024399 44.175602,136.690704 
	C47.254330,138.763260 50.136688,141.244339 53.446827,142.835480 
	C65.759079,148.753891 78.598610,150.746155 92.841080,147.009644 
z"/>
<path fill="#FBFDFD" opacity="1.000000" stroke="none" 
	d="
M17.900507,81.003639 
	C19.152771,53.799210 31.332029,33.578556 56.811523,22.966127 
	C94.128624,7.423239 135.686600,31.712910 141.190079,71.736946 
	C141.439087,73.547768 141.677231,75.360085 141.943970,78.031342 
	C141.827271,90.203934 139.177139,100.890785 133.742188,111.098289 
	C133.153702,111.905785 132.795822,112.555489 132.429565,113.210144 
	C132.421188,113.215096 132.410995,113.231537 132.156464,113.468338 
	C115.079704,139.253387 83.919151,148.767303 55.763592,137.124771 
	C43.862442,132.203568 35.253452,123.413895 27.203236,113.870193 
	C27.186085,113.902596 27.238993,113.854820 27.195375,113.495399 
	C26.323566,111.434784 25.495373,109.733582 24.563841,107.700768 
	C20.509430,99.019646 18.038567,90.301857 17.900507,81.003639 
M128.223663,70.215714 
	C126.864853,66.460976 125.506042,62.706234 124.028656,58.237389 
	C119.616615,52.900467 115.496094,47.285221 110.726685,42.289474 
	C102.856552,34.045872 92.603622,31.170647 81.527847,30.727816 
	C55.613903,29.691715 31.986225,50.414127 30.797628,75.625793 
	C30.814489,76.068993 30.831350,76.512184 30.567598,77.496429 
	C30.628595,78.700432 30.689590,79.904427 30.483377,81.962875 
	C30.999077,85.576538 31.088152,89.315254 32.104404,92.782196 
	C36.480812,107.712296 45.126518,119.095650 60.349468,125.659836 
	C74.467957,131.278168 88.387466,131.863907 102.693481,124.006584 
	C110.984932,119.990715 117.480156,114.048676 122.542633,105.546585 
	C124.373184,99.735146 126.203735,93.923706 128.510391,87.920586 
	C128.628281,87.624077 128.746185,87.327576 129.096695,86.158844 
	C129.014389,83.771255 128.932083,81.383667 129.072479,78.169716 
	C128.690079,75.773842 128.307663,73.377968 128.223663,70.215714 
z"/>
<path fill="#397A7C" opacity="1.000000" stroke="none" 
	d="
M27.220385,113.837799 
	C35.253452,123.413895 43.862442,132.203568 55.763592,137.124771 
	C83.919151,148.767303 115.079704,139.253387 132.231689,113.876984 
	C131.781998,116.149643 131.294601,118.425781 130.160965,120.313911 
	C127.958321,123.982536 125.392883,127.433327 122.977745,130.974365 
	C121.857605,131.569122 120.737457,132.163864 119.069550,133.069321 
	C118.004677,134.243286 117.487564,135.106567 116.970459,135.969849 
	C116.970459,135.969849 116.490875,135.989853 115.973450,136.106049 
	C114.964203,136.808044 114.472382,137.393829 113.980560,137.979614 
	C113.980568,137.979614 113.498230,138.000076 112.913139,138.079544 
	C110.542252,139.427765 108.756447,140.696533 106.970650,141.965286 
	C106.539078,141.981476 106.107498,141.997665 104.979309,142.094482 
	C100.188156,143.448669 96.093620,144.722198 91.556351,145.995651 
	C80.085815,147.702591 69.247231,146.997971 58.821140,142.896133 
	C53.756401,140.903580 48.918995,138.333206 43.978676,136.024399 
	C43.978676,136.024399 43.501438,135.997818 43.170509,135.664093 
	C41.554737,134.226303 40.269901,133.122238 38.985062,132.018188 
	C38.985062,132.018188 38.999237,132.000610 38.816612,131.724716 
	C37.079006,129.502563 35.326607,127.680061 34.012020,125.583099 
	C31.611382,121.753738 29.469940,117.761879 27.220385,113.837799 
z"/>
<path fill="#41888A" opacity="1.000000" stroke="none" 
	d="
M123.311134,130.891479 
	C125.392883,127.433327 127.958321,123.982536 130.160965,120.313911 
	C131.294601,118.425781 131.781998,116.149643 132.486206,113.640190 
	C132.410995,113.231537 132.421188,113.215096 132.701813,113.265976 
	C133.312561,112.524734 133.642670,111.732613 133.972778,110.940491 
	C139.177139,100.890785 141.827271,90.203934 142.035904,78.450195 
	C142.725525,79.277115 143.876709,80.540016 143.888245,81.813240 
	C144.053436,100.058517 138.171890,116.067726 125.774879,129.564209 
	C125.243271,130.142975 124.362595,130.401108 123.311134,130.891479 
z"/>
<path fill="#3F888A" opacity="1.000000" stroke="none" 
	d="
M27.203236,113.870193 
	C29.469940,117.761879 31.611382,121.753738 34.012020,125.583099 
	C35.326607,127.680061 37.079006,129.502563 38.810402,131.732117 
	C37.277302,131.113922 35.149647,130.594254 33.923454,129.251404 
	C22.634014,116.887970 16.612852,102.290268 16.103754,85.519737 
	C16.062468,84.159676 16.868608,82.773888 17.590736,81.201843 
	C18.038567,90.301857 20.509430,99.019646 24.334034,107.859436 
	C22.995064,111.408859 24.252455,113.107925 27.238993,113.854820 
	C27.238993,113.854820 27.186085,113.902596 27.203236,113.870193 
z"/>
<path fill="#3F888A" opacity="1.000000" stroke="none" 
	d="
M44.077141,136.357544 
	C48.918995,138.333206 53.756401,140.903580 58.821140,142.896133 
	C69.247231,146.997971 80.085815,147.702591 91.557861,146.250519 
	C92.003410,146.675323 92.004723,146.845184 92.006027,147.015060 
	C78.598610,150.746155 65.759079,148.753891 53.446827,142.835480 
	C50.136688,141.244339 47.254330,138.763260 44.077141,136.357544 
z"/>
<path fill="#3F888B" opacity="1.000000" stroke="none" 
	d="
M92.423553,147.012360 
	C92.004723,146.845184 92.003410,146.675323 92.000595,146.250580 
	C96.093620,144.722198 100.188156,143.448669 104.655624,142.106689 
	C100.966064,143.695374 96.903572,145.352509 92.423553,147.012360 
z"/>
<path fill="#3F888B" opacity="1.000000" stroke="none" 
	d="
M107.316093,141.898621 
	C108.756447,140.696533 110.542252,139.427765 112.671936,138.089111 
	C111.231064,139.290146 109.446297,140.561050 107.316093,141.898621 
z"/>
<path fill="#3F888A" opacity="1.000000" stroke="none" 
	d="
M39.074783,132.340637 
	C40.269901,133.122238 41.554737,134.226303 42.931877,135.650970 
	C41.737621,134.868759 40.451065,133.765915 39.074783,132.340637 
z"/>
<path fill="#3F888B" opacity="1.000000" stroke="none" 
	d="
M117.265709,135.844391 
	C117.487564,135.106567 118.004677,134.243286 118.780762,133.208817 
	C118.546814,133.931396 118.053886,134.825165 117.265709,135.844391 
z"/>
<path fill="#3F888B" opacity="1.000000" stroke="none" 
	d="
M114.258781,137.875549 
	C114.472382,137.393829 114.964203,136.808044 115.733719,136.117432 
	C115.519936,136.598892 115.028465,137.185196 114.258781,137.875549 
z"/>
<path fill="#469598" opacity="1.000000" stroke="none" 
	d="
M30.848213,76.955383 
	C30.831350,76.512184 30.814489,76.068993 31.216768,75.149002 
	C32.289219,73.363708 33.162930,72.118484 33.559860,70.736343 
	C36.024776,62.153339 40.860588,55.059097 47.443722,49.222794 
	C49.574879,47.333412 52.541195,46.386063 55.020393,45.343975 
	C53.051918,49.362309 50.419834,52.856674 49.465992,56.761032 
	C46.314064,69.662766 48.758816,77.073814 62.592930,77.989578 
	C62.902229,78.010056 63.199883,78.206474 63.502972,78.320824 
	C63.293640,78.501915 63.084309,78.683014 62.874977,78.864105 
	C65.192314,81.668564 67.509651,84.473030 69.953987,87.431183 
	C66.703835,99.369453 63.326073,111.776489 59.949638,124.396385 
	C59.950974,124.609245 59.984852,125.033623 59.984852,125.033623 
	C45.126518,119.095650 36.480812,107.712296 32.104404,92.782196 
	C31.088152,89.315254 30.999077,85.576538 30.804735,81.263474 
	C31.033466,79.361183 30.940840,78.158279 30.848213,76.955383 
z"/>
<path fill="#469699" opacity="1.000000" stroke="none" 
	d="
M122.007034,105.995911 
	C117.480156,114.048676 110.984932,119.990715 102.343323,124.032883 
	C101.993164,124.059181 102.043732,124.055817 102.025391,123.652840 
	C98.699287,112.196907 95.339546,101.159126 92.105148,90.084747 
	C90.428680,84.344620 93.443275,79.692215 99.313919,78.621483 
	C106.681877,77.277664 110.151054,73.561699 109.938896,66.032364 
	C109.810402,61.471935 108.552460,56.943333 108.041168,52.217319 
	C109.782295,52.785797 111.698334,53.174736 112.722702,54.344505 
	C124.260376,67.519791 127.356255,82.554596 122.432152,99.356949 
	C121.823700,101.433151 122.126503,103.776405 122.007034,105.995911 
z"/>
<path fill="#3A7B7D" opacity="1.000000" stroke="none" 
	d="
M55.125488,45.007801 
	C52.541195,46.386063 49.574879,47.333412 47.443722,49.222794 
	C40.860588,55.059097 36.024776,62.153339 33.559860,70.736343 
	C33.162930,72.118484 32.289219,73.363708 31.329155,74.831718 
	C31.986225,50.414127 55.613903,29.691715 81.527847,30.727816 
	C92.603622,31.170647 102.856552,34.045872 110.726685,42.289474 
	C115.496094,47.285221 119.616615,52.900467 123.721451,58.607018 
	C122.925003,58.995872 122.435760,59.015102 121.682961,58.829300 
	C115.948753,53.409637 110.478104,48.195015 104.895424,42.643593 
	C102.080482,41.243454 99.377556,40.180115 96.465355,39.077297 
	C96.256073,39.037819 95.971123,38.721233 95.819168,38.577965 
	C95.449348,38.257393 95.209389,38.118153 94.580078,37.972488 
	C79.627213,31.140400 67.917870,33.261288 55.125488,45.007801 
z"/>
<path fill="#4E9C9F" opacity="1.000000" stroke="none" 
	d="
M60.167160,125.346725 
	C59.984852,125.033623 59.950974,124.609245 60.329594,124.429291 
	C62.081898,121.725189 63.964245,119.346260 64.734016,116.649719 
	C67.055305,108.518173 68.863998,100.241531 71.069633,92.074692 
	C71.504410,90.464844 72.818954,89.092606 73.727768,87.610786 
	C74.232040,87.845222 74.736313,88.079659 75.240585,88.314095 
	C72.471519,99.171310 69.646141,110.014908 67.012924,120.904976 
	C66.721886,122.108627 67.529213,123.577858 68.216629,124.904236 
	C68.865791,124.871536 69.125465,124.858521 69.729416,124.995590 
	C72.031456,122.646896 73.989204,120.148117 75.926445,117.675514 
	C75.636673,119.484047 75.312172,121.509354 74.999786,123.459038 
	C76.865608,124.219208 78.387344,124.839195 80.263947,125.603760 
	C81.661186,121.721252 82.934151,118.184082 84.393143,114.129982 
	C85.866089,118.497139 87.150032,122.303917 88.542801,126.433372 
	C90.090767,123.555740 91.897041,121.680832 91.996025,119.719757 
	C92.236969,114.945694 91.745956,110.127670 91.428230,105.335411 
	C91.270042,102.949364 90.844826,100.581024 90.540390,98.204674 
	C93.772102,104.797386 95.707939,111.595955 98.063629,118.245796 
	C98.821121,120.384109 100.685661,122.130257 102.043732,124.055817 
	C102.043732,124.055817 101.993164,124.059181 101.983307,124.036636 
	C88.387466,131.863907 74.467957,131.278168 60.167160,125.346725 
z"/>
<path fill="#469395" opacity="1.000000" stroke="none" 
	d="
M105.007446,42.980389 
	C110.478104,48.195015 115.948753,53.409637 121.742676,59.184311 
	C123.379005,63.162041 124.692078,66.579727 126.040390,70.391350 
	C127.000343,73.522217 127.925056,76.259148 128.849777,78.996078 
	C128.932083,81.383667 129.014389,83.771255 128.832245,86.767395 
	C128.386841,87.619125 128.209000,87.864563 128.034286,88.112267 
	C126.203735,93.923706 124.373184,99.735146 122.274834,105.771248 
	C122.126503,103.776405 121.823700,101.433151 122.432152,99.356949 
	C127.356255,82.554596 124.260376,67.519791 112.722702,54.344505 
	C111.698334,53.174736 109.782295,52.785797 107.791107,51.973953 
	C104.938187,48.582424 102.574547,45.251152 100.561417,41.952850 
	C102.277092,42.317348 103.642273,42.648869 105.007446,42.980389 
z"/>
<path fill="#3C8183" opacity="1.000000" stroke="none" 
	d="
M126.005150,69.997414 
	C124.692078,66.579727 123.379005,63.162041 122.006226,59.389343 
	C122.435760,59.015102 122.925003,58.995872 123.780739,58.964066 
	C125.506042,62.706234 126.864853,66.460976 127.834412,70.475822 
	C126.965149,70.489761 126.485153,70.243584 126.005150,69.997414 
z"/>
<path fill="#40898B" opacity="1.000000" stroke="none" 
	d="
M126.040390,70.391350 
	C126.485153,70.243584 126.965149,70.489761 127.685211,70.859009 
	C128.307663,73.377968 128.690079,75.773842 128.961121,78.582901 
	C127.925056,76.259148 127.000343,73.522217 126.040390,70.391350 
z"/>
<path fill="#397A7C" opacity="1.000000" stroke="none" 
	d="
M27.195375,113.495399 
	C24.252455,113.107925 22.995064,111.408859 24.437374,108.191055 
	C25.495373,109.733582 26.323566,111.434784 27.195375,113.495399 
z"/>
<path fill="#3A7B7D" opacity="1.000000" stroke="none" 
	d="
M30.707905,77.225906 
	C30.940840,78.158279 31.033466,79.361183 30.938339,80.836258 
	C30.689590,79.904427 30.628595,78.700432 30.707905,77.225906 
z"/>
<path fill="#397A7C" opacity="1.000000" stroke="none" 
	d="
M133.742188,111.098289 
	C133.642670,111.732613 133.312561,112.524734 132.710205,113.261024 
	C132.795822,112.555489 133.153702,111.905785 133.742188,111.098289 
z"/>
<path fill="#40898B" opacity="1.000000" stroke="none" 
	d="
M128.272339,88.016426 
	C128.209000,87.864563 128.386841,87.619125 128.715942,87.203506 
	C128.746185,87.327576 128.628281,87.624077 128.272339,88.016426 
z"/>
<path fill="#F9FCFC" opacity="1.000000" stroke="none" 
	d="
M100.210915,41.919876 
	C102.574547,45.251152 104.938187,48.582424 107.551888,52.157066 
	C108.552460,56.943333 109.810402,61.471935 109.938896,66.032364 
	C110.151054,73.561699 106.681877,77.277664 99.313919,78.621483 
	C93.443275,79.692215 90.428680,84.344620 92.105148,90.084747 
	C95.339546,101.159126 98.699287,112.196907 102.025391,123.652840 
	C100.685661,122.130257 98.821121,120.384109 98.063629,118.245796 
	C95.707939,111.595955 93.772102,104.797386 90.540390,98.204674 
	C90.844826,100.581024 91.270042,102.949364 91.428230,105.335411 
	C91.745956,110.127670 92.236969,114.945694 91.996025,119.719757 
	C91.897041,121.680832 90.090767,123.555740 88.542801,126.433372 
	C87.150032,122.303917 85.866089,118.497139 84.393143,114.129982 
	C82.934151,118.184082 81.661186,121.721252 80.263947,125.603760 
	C78.387344,124.839195 76.865608,124.219208 74.999786,123.459038 
	C75.312172,121.509354 75.636673,119.484047 75.926445,117.675514 
	C73.989204,120.148117 72.031456,122.646896 69.858742,124.689804 
	C71.832733,117.641151 74.021690,111.048363 76.210640,104.455574 
	C75.638496,104.279350 75.066345,104.103127 74.494194,103.926903 
	C72.271843,110.925911 70.049492,117.924911 67.827133,124.923920 
	C67.529213,123.577858 66.721886,122.108627 67.012924,120.904976 
	C69.646141,110.014908 72.471519,99.171310 75.240585,88.314095 
	C74.736313,88.079659 74.232040,87.845222 73.727768,87.610786 
	C72.818954,89.092606 71.504410,90.464844 71.069633,92.074692 
	C68.863998,100.241531 67.055305,108.518173 64.734016,116.649719 
	C63.964245,119.346260 62.081898,121.725189 60.328259,124.216431 
	C63.326073,111.776489 66.703835,99.369453 69.953987,87.431183 
	C67.509651,84.473030 65.192314,81.668564 62.874977,78.864105 
	C63.084309,78.683014 63.293640,78.501915 63.502972,78.320824 
	C63.199883,78.206474 62.902229,78.010056 62.592930,77.989578 
	C48.758816,77.073814 46.314064,69.662766 49.465992,56.761032 
	C50.419834,52.856674 53.051918,49.362309 55.020393,45.343975 
	C67.917870,33.261288 79.627213,31.140400 94.697113,38.160000 
	C95.386925,38.640190 95.650162,38.749935 95.971123,38.721233 
	C95.971123,38.721233 96.256073,39.037819 96.649467,39.349121 
	C98.098877,40.413578 99.154900,41.166729 100.210915,41.919876 
M76.809441,99.034081 
	C77.341934,96.057915 77.874435,93.081741 78.406929,90.105576 
	C77.980408,90.010300 77.553886,89.915031 77.127365,89.819763 
	C76.468811,92.554459 75.810257,95.289146 74.966972,98.871391 
	C74.813606,100.251259 74.660240,101.631126 74.506874,103.010994 
	C74.871826,103.056541 75.236778,103.102089 75.601723,103.147636 
	C75.903915,102.027649 76.206108,100.907669 76.809441,99.034081 
M82.404320,97.347923 
	C82.220436,95.849052 82.036545,94.350182 81.852661,92.851318 
	C81.463417,92.877991 81.074165,92.904671 80.684921,92.931351 
	C80.684921,99.205330 80.684921,105.479301 80.684921,111.753273 
	C81.284477,111.762344 81.884033,111.771416 82.483589,111.780479 
	C82.483589,107.251534 82.483589,102.722580 82.404320,97.347923 
z"/>
<path fill="#3C8183" opacity="1.000000" stroke="none" 
	d="
M100.561417,41.952850 
	C99.154900,41.166729 98.098877,40.413578 96.858749,39.388603 
	C99.377556,40.180115 102.080482,41.243454 104.895424,42.643593 
	C103.642273,42.648869 102.277092,42.317348 100.561417,41.952850 
z"/>
<path fill="#3C8183" opacity="1.000000" stroke="none" 
	d="
M95.819168,38.577965 
	C95.650162,38.749935 95.386925,38.640190 95.064377,38.204491 
	C95.209389,38.118153 95.449348,38.257393 95.819168,38.577965 
z"/>
<path fill="#5CA6A9" opacity="1.000000" stroke="none" 
	d="
M68.216629,124.904236 
	C70.049492,117.924911 72.271843,110.925911 74.494194,103.926903 
	C75.066345,104.103127 75.638496,104.279350 76.210640,104.455574 
	C74.021690,111.048363 71.832733,117.641151 69.514450,124.539719 
	C69.125465,124.858521 68.865791,124.871536 68.216629,124.904236 
z"/>
<path fill="#5BA6A8" opacity="1.000000" stroke="none" 
	d="
M82.443954,97.770782 
	C82.483589,102.722580 82.483589,107.251534 82.483589,111.780479 
	C81.884033,111.771416 81.284477,111.762344 80.684921,111.753273 
	C80.684921,105.479301 80.684921,99.205330 80.684921,92.931351 
	C81.074165,92.904671 81.463417,92.877991 81.852661,92.851318 
	C82.036545,94.350182 82.220436,95.849052 82.443954,97.770782 
z"/>
<path fill="#5EA8AA" opacity="1.000000" stroke="none" 
	d="
M75.151703,98.023842 
	C75.810257,95.289146 76.468811,92.554459 77.127365,89.819763 
	C77.553886,89.915031 77.980408,90.010300 78.406929,90.105576 
	C77.874435,93.081741 77.341934,96.057915 76.445816,99.106300 
	C75.772034,98.793625 75.461868,98.408737 75.151703,98.023842 
z"/>
<path fill="#5CA6A9" opacity="1.000000" stroke="none" 
	d="
M75.059341,98.447617 
	C75.461868,98.408737 75.772034,98.793625 76.295242,99.483101 
	C76.206108,100.907669 75.903915,102.027649 75.601723,103.147636 
	C75.236778,103.102089 74.871826,103.056541 74.506874,103.010994 
	C74.660240,101.631126 74.813606,100.251259 75.059341,98.447617 
z"/>
</svg>